# Blender 4.2.1 LTS
# www.blender.org
o Cone
v 0.000000 -1.000000 0.000000
v 0.000000 -1.000000 -1.000000
v 0.195090 -1.000000 -0.980785
v 0.382683 -1.000000 -0.923880
v 0.555570 -1.000000 -0.831470
v 0.707107 -1.000000 -0.707107
v 0.831470 -1.000000 -0.555570
v 0.923880 -1.000000 -0.382683
v 0.980785 -1.000000 -0.195090
v 1.000000 -1.000000 0.000000
v 0.980785 -1.000000 0.195090
v 0.923880 -1.000000 0.382683
v 0.831470 -1.000000 0.555570
v 0.707107 -1.000000 0.707107
v 0.555570 -1.000000 0.831470
v 0.382683 -1.000000 0.923880
v 0.195090 -1.000000 0.980785
v 0.000000 -1.000000 1.000000
v -0.195090 -1.000000 0.980785
v -0.382683 -1.000000 0.923880
v -0.555570 -1.000000 0.831470
v -0.707107 -1.000000 0.707107
v -0.831470 -1.000000 0.555570
v -0.923880 -1.000000 0.382683
v -0.980785 -1.000000 0.195090
v -1.000000 -1.000000 0.000000
v -0.980785 -1.000000 -0.195090
v -0.923880 -1.000000 -0.382683
v -0.831470 -1.000000 -0.555570
v -0.707107 -1.000000 -0.707107
v -0.555570 -1.000000 -0.831470
v -0.382683 -1.000000 -0.923880
v -0.195090 -1.000000 -0.980785
v 0.000000 1.000000 0.000000
vn -0.0000 -1.0000 -0.0000
vn -0.0000 0.4472 -0.8944
vn -0.0000 1.0000 -0.0000
vn 0.1745 0.4472 -0.8772
vn 0.3423 0.4472 -0.8263
vn 0.4969 0.4472 -0.7437
vn 0.6325 0.4472 -0.6325
vn 0.7437 0.4472 -0.4969
vn 0.8263 0.4472 -0.3423
vn 0.8772 0.4472 -0.1745
vn 0.8944 0.4472 -0.0000
vn 0.8772 0.4472 0.1745
vn 0.8263 0.4472 0.3423
vn 0.7437 0.4472 0.4969
vn 0.6325 0.4472 0.6325
vn 0.4969 0.4472 0.7437
vn 0.3423 0.4472 0.8263
vn 0.1745 0.4472 0.8772
vn -0.0000 0.4472 0.8944
vn -0.1745 0.4472 0.8772
vn -0.3423 0.4472 0.8263
vn -0.4969 0.4472 0.7437
vn -0.6325 0.4472 0.6325
vn -0.7437 0.4472 0.4969
vn -0.8263 0.4472 0.3423
vn -0.8772 0.4472 0.1745
vn -0.8944 0.4472 -0.0000
vn -0.8772 0.4472 -0.1745
vn -0.8263 0.4472 -0.3423
vn -0.7437 0.4472 -0.4969
vn -0.6325 0.4472 -0.6325
vn -0.4969 0.4472 -0.7437
vn -0.3423 0.4472 -0.8263
vn -0.1745 0.4472 -0.8772
vt 0.750000 0.250000
vt 0.750000 0.490000
vt 0.796822 0.485388
vt 0.250000 0.490000
vt 0.250000 0.250000
vt 0.296822 0.485388
vt 0.841844 0.471731
vt 0.341844 0.471731
vt 0.883337 0.449553
vt 0.383337 0.449553
vt 0.919706 0.419706
vt 0.419706 0.419706
vt 0.949553 0.383337
vt 0.449553 0.383337
vt 0.971731 0.341844
vt 0.471731 0.341844
vt 0.985388 0.296822
vt 0.485388 0.296822
vt 0.990000 0.250000
vt 0.490000 0.250000
vt 0.985388 0.203178
vt 0.485388 0.203178
vt 0.971731 0.158156
vt 0.471731 0.158156
vt 0.949553 0.116663
vt 0.449553 0.116663
vt 0.919706 0.080294
vt 0.419706 0.080294
vt 0.883337 0.050447
vt 0.383337 0.050447
vt 0.841844 0.028269
vt 0.341844 0.028269
vt 0.796822 0.014612
vt 0.296822 0.014612
vt 0.750000 0.010000
vt 0.250000 0.010000
vt 0.703178 0.014612
vt 0.203178 0.014612
vt 0.658156 0.028269
vt 0.158156 0.028269
vt 0.616663 0.050447
vt 0.116663 0.050447
vt 0.580294 0.080294
vt 0.080294 0.080294
vt 0.550447 0.116663
vt 0.050447 0.116663
vt 0.528269 0.158156
vt 0.028269 0.158156
vt 0.514612 0.203178
vt 0.014612 0.203178
vt 0.510000 0.250000
vt 0.010000 0.250000
vt 0.514612 0.296822
vt 0.014612 0.296822
vt 0.528269 0.341844
vt 0.028269 0.341844
vt 0.550447 0.383337
vt 0.050447 0.383337
vt 0.580294 0.419706
vt 0.080294 0.419706
vt 0.616663 0.449553
vt 0.116663 0.449553
vt 0.658156 0.471731
vt 0.158156 0.471731
vt 0.703178 0.485388
vt 0.203178 0.485388
s 1
f 1/1/1 2/2/1 3/3/1
f 2/4/2 34/5/3 3/6/4
f 1/1/1 3/3/1 4/7/1
f 3/6/4 34/5/3 4/8/5
f 1/1/1 4/7/1 5/9/1
f 4/8/5 34/5/3 5/10/6
f 1/1/1 5/9/1 6/11/1
f 5/10/6 34/5/3 6/12/7
f 1/1/1 6/11/1 7/13/1
f 6/12/7 34/5/3 7/14/8
f 1/1/1 7/13/1 8/15/1
f 7/14/8 34/5/3 8/16/9
f 1/1/1 8/15/1 9/17/1
f 8/16/9 34/5/3 9/18/10
f 1/1/1 9/17/1 10/19/1
f 9/18/10 34/5/3 10/20/11
f 1/1/1 10/19/1 11/21/1
f 10/20/11 34/5/3 11/22/12
f 1/1/1 11/21/1 12/23/1
f 11/22/12 34/5/3 12/24/13
f 1/1/1 12/23/1 13/25/1
f 12/24/13 34/5/3 13/26/14
f 1/1/1 13/25/1 14/27/1
f 13/26/14 34/5/3 14/28/15
f 1/1/1 14/27/1 15/29/1
f 14/28/15 34/5/3 15/30/16
f 1/1/1 15/29/1 16/31/1
f 15/30/16 34/5/3 16/32/17
f 1/1/1 16/31/1 17/33/1
f 16/32/17 34/5/3 17/34/18
f 1/1/1 17/33/1 18/35/1
f 17/34/18 34/5/3 18/36/19
f 1/1/1 18/35/1 19/37/1
f 18/36/19 34/5/3 19/38/20
f 1/1/1 19/37/1 20/39/1
f 19/38/20 34/5/3 20/40/21
f 1/1/1 20/39/1 21/41/1
f 20/40/21 34/5/3 21/42/22
f 1/1/1 21/41/1 22/43/1
f 21/42/22 34/5/3 22/44/23
f 1/1/1 22/43/1 23/45/1
f 22/44/23 34/5/3 23/46/24
f 1/1/1 23/45/1 24/47/1
f 23/46/24 34/5/3 24/48/25
f 1/1/1 24/47/1 25/49/1
f 24/48/25 34/5/3 25/50/26
f 1/1/1 25/49/1 26/51/1
f 25/50/26 34/5/3 26/52/27
f 1/1/1 26/51/1 27/53/1
f 26/52/27 34/5/3 27/54/28
f 1/1/1 27/53/1 28/55/1
f 27/54/28 34/5/3 28/56/29
f 1/1/1 28/55/1 29/57/1
f 28/56/29 34/5/3 29/58/30
f 1/1/1 29/57/1 30/59/1
f 29/58/30 34/5/3 30/60/31
f 1/1/1 30/59/1 31/61/1
f 30/60/31 34/5/3 31/62/32
f 1/1/1 31/61/1 32/63/1
f 31/62/32 34/5/3 32/64/33
f 1/1/1 32/63/1 33/65/1
f 32/64/33 34/5/3 33/66/34
f 1/1/1 33/65/1 2/2/1
f 33/66/34 34/5/3 2/4/2
